<mxfile host="app.diagrams.net" modified="2024-01-29T15:18:07.837Z" agent="Mozilla/5.0 (Windows NT 10.0; Win64; x64) AppleWebKit/537.36 (KHTML, like Gecko) Chrome/110.0.0.0 Safari/537.36" etag="eK7e9fTJWU13L0ylLuwu" version="23.0.2" type="device">
  <diagram id="R2lEEEUBdFMjLlhIrx00" name="Page-1">
    <mxGraphModel dx="2596" dy="1755" grid="1" gridSize="10" guides="1" tooltips="1" connect="1" arrows="1" fold="1" page="1" pageScale="1" pageWidth="850" pageHeight="1100" math="0" shadow="0" extFonts="Permanent Marker^https://fonts.googleapis.com/css?family=Permanent+Marker">
      <root>
        <mxCell id="0" />
        <mxCell id="1" parent="0" />
        <mxCell id="a64oz1EbVZFV1ZMja35D-1" value="Analista" style="swimlane;childLayout=stackLayout;horizontal=1;startSize=50;horizontalStack=0;rounded=1;fontSize=14;fontStyle=0;strokeWidth=2;resizeParent=0;resizeLast=1;shadow=0;dashed=0;align=center;arcSize=4;whiteSpace=wrap;html=1;fillColor=#d5e8d4;strokeColor=#82b366;" vertex="1" parent="1">
          <mxGeometry x="342" y="360" width="160" height="50" as="geometry" />
        </mxCell>
        <mxCell id="a64oz1EbVZFV1ZMja35D-2" value="Software" style="swimlane;childLayout=stackLayout;horizontal=1;startSize=50;horizontalStack=0;rounded=1;fontSize=14;fontStyle=0;strokeWidth=2;resizeParent=0;resizeLast=1;shadow=0;dashed=0;align=center;arcSize=4;whiteSpace=wrap;html=1;fillColor=#d5e8d4;strokeColor=#82b366;" vertex="1" parent="1">
          <mxGeometry x="1555.13" y="1145" width="160" height="50" as="geometry" />
        </mxCell>
        <mxCell id="a64oz1EbVZFV1ZMja35D-3" value="Informe técnico" style="swimlane;childLayout=stackLayout;horizontal=1;startSize=50;horizontalStack=0;rounded=1;fontSize=14;fontStyle=0;strokeWidth=2;resizeParent=0;resizeLast=1;shadow=0;dashed=0;align=center;arcSize=4;whiteSpace=wrap;html=1;fillColor=#d5e8d4;strokeColor=#82b366;" vertex="1" parent="1">
          <mxGeometry x="1775.13" y="1145" width="160" height="50" as="geometry" />
        </mxCell>
        <mxCell id="a64oz1EbVZFV1ZMja35D-4" value="Proyecto" style="swimlane;childLayout=stackLayout;horizontal=1;startSize=50;horizontalStack=0;rounded=1;fontSize=14;fontStyle=0;strokeWidth=2;resizeParent=0;resizeLast=1;shadow=0;dashed=0;align=center;arcSize=4;whiteSpace=wrap;html=1;fillColor=#d5e8d4;strokeColor=#82b366;" vertex="1" parent="1">
          <mxGeometry x="1102" y="-10" width="160" height="320" as="geometry">
            <mxRectangle x="670" y="10" width="100" height="50" as="alternateBounds" />
          </mxGeometry>
        </mxCell>
        <mxCell id="a64oz1EbVZFV1ZMja35D-5" value="&lt;u&gt;CodProyecto&lt;/u&gt;&lt;br&gt;&lt;br&gt;Nombre&lt;br&gt;&lt;br&gt;Cliente&lt;br&gt;&lt;br&gt;Descripción&lt;br&gt;&lt;br&gt;Presupuesto&lt;br&gt;&lt;br&gt;NºHoras&lt;br&gt;&lt;br&gt;FechaInicio&lt;br&gt;&lt;br&gt;FechaFin&lt;br&gt;&lt;br&gt;ProyectosRel&lt;br&gt;(Multivaluado)" style="align=left;strokeColor=none;fillColor=none;spacingLeft=4;fontSize=12;verticalAlign=top;resizable=0;rotatable=0;part=1;html=1;" vertex="1" parent="a64oz1EbVZFV1ZMja35D-4">
          <mxGeometry y="50" width="160" height="270" as="geometry" />
        </mxCell>
        <mxCell id="a64oz1EbVZFV1ZMja35D-6" value="Empleado" style="swimlane;childLayout=stackLayout;horizontal=1;startSize=50;horizontalStack=0;rounded=1;fontSize=14;fontStyle=0;strokeWidth=2;resizeParent=0;resizeLast=1;shadow=0;dashed=0;align=center;arcSize=4;whiteSpace=wrap;html=1;fillColor=#d5e8d4;strokeColor=#82b366;" vertex="1" parent="1">
          <mxGeometry x="342" y="-140" width="160" height="220" as="geometry" />
        </mxCell>
        <mxCell id="a64oz1EbVZFV1ZMja35D-7" value="&lt;u&gt;DNI&lt;/u&gt;&lt;br&gt;&lt;br&gt;Nombre&lt;br&gt;&lt;br&gt;Dirección&lt;br&gt;&lt;br&gt;Titulación&lt;br&gt;&lt;br&gt;AñoExp&lt;br&gt;&lt;br&gt;HorasPrevistas" style="align=left;strokeColor=none;fillColor=none;spacingLeft=4;fontSize=12;verticalAlign=top;resizable=0;rotatable=0;part=1;html=1;" vertex="1" parent="a64oz1EbVZFV1ZMja35D-6">
          <mxGeometry y="50" width="160" height="170" as="geometry" />
        </mxCell>
        <mxCell id="a64oz1EbVZFV1ZMja35D-8" value="Jefe" style="swimlane;childLayout=stackLayout;horizontal=1;startSize=50;horizontalStack=0;rounded=1;fontSize=14;fontStyle=0;strokeWidth=2;resizeParent=0;resizeLast=1;shadow=0;dashed=0;align=center;arcSize=4;whiteSpace=wrap;html=1;fillColor=#d5e8d4;strokeColor=#82b366;" vertex="1" parent="1">
          <mxGeometry x="572" y="360" width="160" height="50" as="geometry" />
        </mxCell>
        <mxCell id="a64oz1EbVZFV1ZMja35D-9" value="Programador" style="swimlane;childLayout=stackLayout;horizontal=1;startSize=50;horizontalStack=0;rounded=1;fontSize=14;fontStyle=0;strokeWidth=2;resizeParent=0;resizeLast=1;shadow=0;dashed=0;align=center;arcSize=4;whiteSpace=wrap;html=1;fillColor=#d5e8d4;strokeColor=#82b366;" vertex="1" parent="1">
          <mxGeometry x="142" y="360" width="160" height="90" as="geometry" />
        </mxCell>
        <mxCell id="a64oz1EbVZFV1ZMja35D-10" value="Lenguajes&lt;br&gt;(Multivaluado)&lt;br&gt;" style="align=left;strokeColor=none;fillColor=none;spacingLeft=4;fontSize=12;verticalAlign=top;resizable=0;rotatable=0;part=1;html=1;" vertex="1" parent="a64oz1EbVZFV1ZMja35D-9">
          <mxGeometry y="50" width="160" height="40" as="geometry" />
        </mxCell>
        <mxCell id="a64oz1EbVZFV1ZMja35D-11" value="Producto" style="swimlane;childLayout=stackLayout;horizontal=1;startSize=50;horizontalStack=0;rounded=1;fontSize=14;fontStyle=0;strokeWidth=2;resizeParent=0;resizeLast=1;shadow=0;dashed=0;align=center;arcSize=4;whiteSpace=wrap;html=1;fillColor=#d5e8d4;strokeColor=#82b366;" vertex="1" parent="1">
          <mxGeometry x="1775.13" y="680" width="160" height="165" as="geometry" />
        </mxCell>
        <mxCell id="a64oz1EbVZFV1ZMja35D-12" value="&lt;u&gt;CodProducto&lt;/u&gt;&lt;br&gt;&lt;br&gt;Nombre&lt;br&gt;&lt;br&gt;Descripción&lt;br&gt;&lt;br&gt;Estado" style="align=left;strokeColor=none;fillColor=none;spacingLeft=4;fontSize=12;verticalAlign=top;resizable=0;rotatable=0;part=1;html=1;" vertex="1" parent="a64oz1EbVZFV1ZMja35D-11">
          <mxGeometry y="50" width="160" height="115" as="geometry" />
        </mxCell>
        <mxCell id="a64oz1EbVZFV1ZMja35D-13" value="Producto" style="swimlane;childLayout=stackLayout;horizontal=1;startSize=50;horizontalStack=0;rounded=1;fontSize=14;fontStyle=0;strokeWidth=2;resizeParent=0;resizeLast=1;shadow=0;dashed=0;align=center;arcSize=4;whiteSpace=wrap;html=1;fillColor=#d5e8d4;strokeColor=#82b366;" vertex="1" parent="1">
          <mxGeometry x="1988.88" y="1145" width="160" height="80" as="geometry" />
        </mxCell>
        <mxCell id="a64oz1EbVZFV1ZMja35D-14" value="Versión" style="align=left;strokeColor=none;fillColor=none;spacingLeft=4;fontSize=12;verticalAlign=top;resizable=0;rotatable=0;part=1;html=1;" vertex="1" parent="a64oz1EbVZFV1ZMja35D-13">
          <mxGeometry y="50" width="160" height="30" as="geometry" />
        </mxCell>
        <mxCell id="a64oz1EbVZFV1ZMja35D-15" value="Gasto" style="swimlane;childLayout=stackLayout;horizontal=1;startSize=50;horizontalStack=0;rounded=1;fontSize=14;fontStyle=0;strokeWidth=2;resizeParent=0;resizeLast=1;shadow=0;dashed=0;align=center;arcSize=4;whiteSpace=wrap;html=1;fillColor=#d5e8d4;strokeColor=#82b366;" vertex="1" parent="1">
          <mxGeometry x="1772" y="-85" width="160" height="200" as="geometry" />
        </mxCell>
        <mxCell id="a64oz1EbVZFV1ZMja35D-16" value="&lt;u&gt;IDGasto&lt;/u&gt;&lt;br&gt;&lt;br&gt;Descripción&lt;br&gt;&lt;br&gt;Fecha&lt;br&gt;&lt;br&gt;Importe&lt;br&gt;&lt;br&gt;TipoGasto" style="align=left;strokeColor=none;fillColor=none;spacingLeft=4;fontSize=12;verticalAlign=top;resizable=0;rotatable=0;part=1;html=1;" vertex="1" parent="a64oz1EbVZFV1ZMja35D-15">
          <mxGeometry y="50" width="160" height="150" as="geometry" />
        </mxCell>
        <mxCell id="a64oz1EbVZFV1ZMja35D-17" value="" style="triangle;whiteSpace=wrap;html=1;rotation=90;fillColor=#dae8fc;strokeColor=#6c8ebf;" vertex="1" parent="1">
          <mxGeometry x="392" y="180" width="60" height="80" as="geometry" />
        </mxCell>
        <mxCell id="a64oz1EbVZFV1ZMja35D-18" value="Tipo" style="ellipse;whiteSpace=wrap;html=1;align=center;fillColor=#fff2cc;strokeColor=#d6b656;" vertex="1" parent="1">
          <mxGeometry x="502" y="150" width="100" height="40" as="geometry" />
        </mxCell>
        <mxCell id="a64oz1EbVZFV1ZMja35D-19" value="" style="endArrow=none;html=1;rounded=0;exitX=0.019;exitY=0.028;exitDx=0;exitDy=0;exitPerimeter=0;entryX=0;entryY=0.5;entryDx=0;entryDy=0;" edge="1" parent="1" source="a64oz1EbVZFV1ZMja35D-17" target="a64oz1EbVZFV1ZMja35D-18">
          <mxGeometry width="50" height="50" relative="1" as="geometry">
            <mxPoint x="572" y="240" as="sourcePoint" />
            <mxPoint x="622" y="190" as="targetPoint" />
          </mxGeometry>
        </mxCell>
        <mxCell id="a64oz1EbVZFV1ZMja35D-20" value="" style="endArrow=none;html=1;rounded=0;entryX=0.5;entryY=1;entryDx=0;entryDy=0;" edge="1" parent="1" target="a64oz1EbVZFV1ZMja35D-7">
          <mxGeometry width="50" height="50" relative="1" as="geometry">
            <mxPoint x="422" y="190" as="sourcePoint" />
            <mxPoint x="642" y="180" as="targetPoint" />
          </mxGeometry>
        </mxCell>
        <mxCell id="a64oz1EbVZFV1ZMja35D-21" value="" style="endArrow=none;html=1;rounded=0;entryX=0.5;entryY=1;entryDx=0;entryDy=0;" edge="1" parent="1">
          <mxGeometry width="50" height="50" relative="1" as="geometry">
            <mxPoint x="421.41" y="360" as="sourcePoint" />
            <mxPoint x="421.41" y="250" as="targetPoint" />
          </mxGeometry>
        </mxCell>
        <mxCell id="a64oz1EbVZFV1ZMja35D-22" value="" style="endArrow=none;html=1;rounded=0;entryX=0.5;entryY=1;entryDx=0;entryDy=0;exitX=0.5;exitY=0;exitDx=0;exitDy=0;" edge="1" parent="1" source="a64oz1EbVZFV1ZMja35D-9" target="a64oz1EbVZFV1ZMja35D-17">
          <mxGeometry width="50" height="50" relative="1" as="geometry">
            <mxPoint x="592" y="360" as="sourcePoint" />
            <mxPoint x="642" y="310" as="targetPoint" />
          </mxGeometry>
        </mxCell>
        <mxCell id="a64oz1EbVZFV1ZMja35D-23" value="" style="endArrow=none;html=1;rounded=0;entryX=0.5;entryY=0;entryDx=0;entryDy=0;exitX=0.5;exitY=0;exitDx=0;exitDy=0;" edge="1" parent="1" source="a64oz1EbVZFV1ZMja35D-8" target="a64oz1EbVZFV1ZMja35D-17">
          <mxGeometry width="50" height="50" relative="1" as="geometry">
            <mxPoint x="592" y="360" as="sourcePoint" />
            <mxPoint x="642" y="310" as="targetPoint" />
          </mxGeometry>
        </mxCell>
        <mxCell id="a64oz1EbVZFV1ZMja35D-24" value="Está" style="shape=rhombus;perimeter=rhombusPerimeter;whiteSpace=wrap;html=1;align=center;fillColor=#f8cecc;strokeColor=#b85450;" vertex="1" parent="1">
          <mxGeometry x="772" y="-40" width="120" height="60" as="geometry" />
        </mxCell>
        <mxCell id="a64oz1EbVZFV1ZMja35D-25" value="Lidera" style="shape=rhombus;perimeter=rhombusPerimeter;whiteSpace=wrap;html=1;align=center;fillColor=#f8cecc;strokeColor=#b85450;" vertex="1" parent="1">
          <mxGeometry x="772" y="180" width="120" height="60" as="geometry" />
        </mxCell>
        <mxCell id="a64oz1EbVZFV1ZMja35D-26" value="" style="endArrow=none;html=1;rounded=0;exitX=0;exitY=0.5;exitDx=0;exitDy=0;" edge="1" parent="1" source="a64oz1EbVZFV1ZMja35D-24">
          <mxGeometry width="50" height="50" relative="1" as="geometry">
            <mxPoint x="862" y="260" as="sourcePoint" />
            <mxPoint x="502" y="-10" as="targetPoint" />
          </mxGeometry>
        </mxCell>
        <mxCell id="a64oz1EbVZFV1ZMja35D-27" value="" style="endArrow=none;html=1;rounded=0;entryX=1;entryY=0.5;entryDx=0;entryDy=0;" edge="1" parent="1" target="a64oz1EbVZFV1ZMja35D-24">
          <mxGeometry width="50" height="50" relative="1" as="geometry">
            <mxPoint x="1102" y="100" as="sourcePoint" />
            <mxPoint x="902" y="150" as="targetPoint" />
            <Array as="points">
              <mxPoint x="1032" y="100" />
              <mxPoint x="1032" y="-10" />
            </Array>
          </mxGeometry>
        </mxCell>
        <mxCell id="a64oz1EbVZFV1ZMja35D-28" value="" style="endArrow=none;html=1;rounded=0;entryX=0.5;entryY=1;entryDx=0;entryDy=0;" edge="1" parent="1" target="a64oz1EbVZFV1ZMja35D-25">
          <mxGeometry width="50" height="50" relative="1" as="geometry">
            <mxPoint x="732" y="380" as="sourcePoint" />
            <mxPoint x="842" y="210" as="targetPoint" />
            <Array as="points">
              <mxPoint x="832" y="380" />
            </Array>
          </mxGeometry>
        </mxCell>
        <mxCell id="a64oz1EbVZFV1ZMja35D-29" value="" style="endArrow=none;html=1;rounded=0;exitX=1;exitY=0.5;exitDx=0;exitDy=0;" edge="1" parent="1" source="a64oz1EbVZFV1ZMja35D-25">
          <mxGeometry width="50" height="50" relative="1" as="geometry">
            <mxPoint x="862" y="110" as="sourcePoint" />
            <mxPoint x="1101" y="210" as="targetPoint" />
          </mxGeometry>
        </mxCell>
        <mxCell id="a64oz1EbVZFV1ZMja35D-30" value="Fase" style="swimlane;childLayout=stackLayout;horizontal=1;startSize=50;horizontalStack=0;rounded=1;fontSize=14;fontStyle=0;strokeWidth=2;resizeParent=0;resizeLast=1;shadow=0;dashed=0;align=center;arcSize=4;whiteSpace=wrap;html=1;fillColor=#d5e8d4;strokeColor=#82b366;" vertex="1" parent="1">
          <mxGeometry x="1772" y="175" width="160" height="200" as="geometry" />
        </mxCell>
        <mxCell id="a64oz1EbVZFV1ZMja35D-31" value="&lt;u&gt;CodFase&lt;/u&gt;&lt;br&gt;&lt;br&gt;Nombre&lt;br&gt;&lt;br&gt;Descripción&lt;br&gt;&lt;br&gt;Estado" style="align=left;strokeColor=none;fillColor=none;spacingLeft=4;fontSize=12;verticalAlign=top;resizable=0;rotatable=0;part=1;html=1;" vertex="1" parent="a64oz1EbVZFV1ZMja35D-30">
          <mxGeometry y="50" width="160" height="150" as="geometry" />
        </mxCell>
        <mxCell id="a64oz1EbVZFV1ZMja35D-32" value="" style="endArrow=none;html=1;rounded=0;exitX=0;exitY=0.5;exitDx=0;exitDy=0;" edge="1" parent="1" source="a64oz1EbVZFV1ZMja35D-33">
          <mxGeometry width="50" height="50" relative="1" as="geometry">
            <mxPoint x="1592" y="170" as="sourcePoint" />
            <mxPoint x="1262" y="210" as="targetPoint" />
          </mxGeometry>
        </mxCell>
        <mxCell id="a64oz1EbVZFV1ZMja35D-33" value="Compone" style="shape=rhombus;perimeter=rhombusPerimeter;whiteSpace=wrap;html=1;align=center;fillColor=#f8cecc;strokeColor=#b85450;" vertex="1" parent="1">
          <mxGeometry x="1440" y="180" width="120" height="60" as="geometry" />
        </mxCell>
        <mxCell id="a64oz1EbVZFV1ZMja35D-34" value="" style="endArrow=none;html=1;rounded=0;entryX=1;entryY=0.5;entryDx=0;entryDy=0;exitX=0;exitY=0.5;exitDx=0;exitDy=0;" edge="1" parent="1" source="a64oz1EbVZFV1ZMja35D-31" target="a64oz1EbVZFV1ZMja35D-33">
          <mxGeometry width="50" height="50" relative="1" as="geometry">
            <mxPoint x="1810" y="330" as="sourcePoint" />
            <mxPoint x="1707" y="169.41" as="targetPoint" />
            <Array as="points">
              <mxPoint x="1680" y="300" />
              <mxPoint x="1680" y="210" />
            </Array>
          </mxGeometry>
        </mxCell>
        <mxCell id="a64oz1EbVZFV1ZMja35D-35" value="" style="triangle;whiteSpace=wrap;html=1;rotation=90;fillColor=#dae8fc;strokeColor=#6c8ebf;" vertex="1" parent="1">
          <mxGeometry x="1825.13" y="965" width="60" height="80" as="geometry" />
        </mxCell>
        <mxCell id="a64oz1EbVZFV1ZMja35D-36" value="" style="endArrow=none;html=1;rounded=0;entryX=0.5;entryY=1;entryDx=0;entryDy=0;exitX=0;exitY=0.5;exitDx=0;exitDy=0;" edge="1" parent="1" source="a64oz1EbVZFV1ZMja35D-35" target="a64oz1EbVZFV1ZMja35D-12">
          <mxGeometry width="50" height="50" relative="1" as="geometry">
            <mxPoint x="1862.88" y="975" as="sourcePoint" />
            <mxPoint x="1863.2200000000003" y="855" as="targetPoint" />
          </mxGeometry>
        </mxCell>
        <mxCell id="a64oz1EbVZFV1ZMja35D-37" value="" style="endArrow=none;html=1;rounded=0;entryX=1;entryY=0.5;entryDx=0;entryDy=0;exitX=0.5;exitY=0;exitDx=0;exitDy=0;" edge="1" parent="1" source="a64oz1EbVZFV1ZMja35D-3" target="a64oz1EbVZFV1ZMja35D-35">
          <mxGeometry width="50" height="50" relative="1" as="geometry">
            <mxPoint x="1863.0500000000002" y="1145" as="sourcePoint" />
            <mxPoint x="1863.0500000000002" y="1035" as="targetPoint" />
          </mxGeometry>
        </mxCell>
        <mxCell id="a64oz1EbVZFV1ZMja35D-38" value="Tipo" style="ellipse;whiteSpace=wrap;html=1;align=center;fillColor=#fff2cc;strokeColor=#d6b656;" vertex="1" parent="1">
          <mxGeometry x="1953.88" y="925" width="100" height="40" as="geometry" />
        </mxCell>
        <mxCell id="a64oz1EbVZFV1ZMja35D-39" value="" style="endArrow=none;html=1;rounded=0;exitX=0.026;exitY=0.015;exitDx=0;exitDy=0;exitPerimeter=0;entryX=0;entryY=0.5;entryDx=0;entryDy=0;" edge="1" parent="1" source="a64oz1EbVZFV1ZMja35D-35" target="a64oz1EbVZFV1ZMja35D-38">
          <mxGeometry width="50" height="50" relative="1" as="geometry">
            <mxPoint x="1903.88" y="976" as="sourcePoint" />
            <mxPoint x="1945.88" y="955" as="targetPoint" />
          </mxGeometry>
        </mxCell>
        <mxCell id="a64oz1EbVZFV1ZMja35D-40" value="Genera" style="shape=rhombus;perimeter=rhombusPerimeter;whiteSpace=wrap;html=1;align=center;fillColor=#f8cecc;strokeColor=#b85450;" vertex="1" parent="1">
          <mxGeometry x="1440" y="79" width="120" height="60" as="geometry" />
        </mxCell>
        <mxCell id="a64oz1EbVZFV1ZMja35D-41" value="" style="endArrow=none;html=1;rounded=0;exitX=0;exitY=0.5;exitDx=0;exitDy=0;entryX=1;entryY=0.25;entryDx=0;entryDy=0;" edge="1" parent="1" source="a64oz1EbVZFV1ZMja35D-40" target="a64oz1EbVZFV1ZMja35D-5">
          <mxGeometry width="50" height="50" relative="1" as="geometry">
            <mxPoint x="1581" y="80" as="sourcePoint" />
            <mxPoint x="1377" y="50" as="targetPoint" />
          </mxGeometry>
        </mxCell>
        <mxCell id="a64oz1EbVZFV1ZMja35D-42" value="" style="endArrow=none;html=1;rounded=0;entryX=1;entryY=0.5;entryDx=0;entryDy=0;exitX=0;exitY=0.5;exitDx=0;exitDy=0;" edge="1" parent="1" source="a64oz1EbVZFV1ZMja35D-16" target="a64oz1EbVZFV1ZMja35D-40">
          <mxGeometry width="50" height="50" relative="1" as="geometry">
            <mxPoint x="2032" y="20" as="sourcePoint" />
            <mxPoint x="1712" y="330" as="targetPoint" />
            <Array as="points">
              <mxPoint x="1680" y="40" />
              <mxPoint x="1680" y="110" />
            </Array>
          </mxGeometry>
        </mxCell>
        <mxCell id="a64oz1EbVZFV1ZMja35D-43" value="HorasPrevistas" style="ellipse;whiteSpace=wrap;html=1;align=center;fillColor=#fff2cc;strokeColor=#d6b656;" vertex="1" parent="1">
          <mxGeometry x="892" y="130" width="100" height="40" as="geometry" />
        </mxCell>
        <mxCell id="a64oz1EbVZFV1ZMja35D-44" value="" style="endArrow=none;html=1;rounded=0;exitX=1;exitY=0;exitDx=0;exitDy=0;entryX=0;entryY=0.5;entryDx=0;entryDy=0;" edge="1" parent="1" source="a64oz1EbVZFV1ZMja35D-25" target="a64oz1EbVZFV1ZMja35D-43">
          <mxGeometry width="50" height="50" relative="1" as="geometry">
            <mxPoint x="942" y="280" as="sourcePoint" />
            <mxPoint x="992" y="230" as="targetPoint" />
          </mxGeometry>
        </mxCell>
        <mxCell id="a64oz1EbVZFV1ZMja35D-45" value="" style="endArrow=none;html=1;rounded=0;exitX=0;exitY=0.5;exitDx=0;exitDy=0;" edge="1" parent="1" source="a64oz1EbVZFV1ZMja35D-46">
          <mxGeometry width="50" height="50" relative="1" as="geometry">
            <mxPoint x="772" y="613" as="sourcePoint" />
            <mxPoint x="421" y="410" as="targetPoint" />
            <Array as="points">
              <mxPoint x="422" y="791" />
            </Array>
          </mxGeometry>
        </mxCell>
        <mxCell id="a64oz1EbVZFV1ZMja35D-46" value="Gestiona" style="shape=rhombus;perimeter=rhombusPerimeter;whiteSpace=wrap;html=1;align=center;fillColor=#f8cecc;strokeColor=#b85450;" vertex="1" parent="1">
          <mxGeometry x="772" y="761" width="120" height="60" as="geometry" />
        </mxCell>
        <mxCell id="a64oz1EbVZFV1ZMja35D-47" value="N:M" style="text;html=1;strokeColor=none;fillColor=none;align=center;verticalAlign=middle;whiteSpace=wrap;rounded=0;" vertex="1" parent="1">
          <mxGeometry x="802" y="-70" width="60" height="30" as="geometry" />
        </mxCell>
        <mxCell id="a64oz1EbVZFV1ZMja35D-48" value="(1,N)" style="text;html=1;strokeColor=none;fillColor=none;align=center;verticalAlign=middle;whiteSpace=wrap;rounded=0;" vertex="1" parent="1">
          <mxGeometry x="502" y="-40" width="60" height="30" as="geometry" />
        </mxCell>
        <mxCell id="a64oz1EbVZFV1ZMja35D-49" value="(0,M)" style="text;html=1;strokeColor=none;fillColor=none;align=center;verticalAlign=middle;whiteSpace=wrap;rounded=0;" vertex="1" parent="1">
          <mxGeometry x="1052" y="70" width="60" height="30" as="geometry" />
        </mxCell>
        <mxCell id="a64oz1EbVZFV1ZMja35D-50" value="1:N" style="text;html=1;strokeColor=none;fillColor=none;align=center;verticalAlign=middle;whiteSpace=wrap;rounded=0;" vertex="1" parent="1">
          <mxGeometry x="802" y="150" width="60" height="30" as="geometry" />
        </mxCell>
        <mxCell id="a64oz1EbVZFV1ZMja35D-51" value="(1,1)" style="text;html=1;strokeColor=none;fillColor=none;align=center;verticalAlign=middle;whiteSpace=wrap;rounded=0;" vertex="1" parent="1">
          <mxGeometry x="732" y="350" width="60" height="30" as="geometry" />
        </mxCell>
        <mxCell id="a64oz1EbVZFV1ZMja35D-52" value="(1,N)" style="text;html=1;strokeColor=none;fillColor=none;align=center;verticalAlign=middle;whiteSpace=wrap;rounded=0;" vertex="1" parent="1">
          <mxGeometry x="1052" y="180" width="60" height="30" as="geometry" />
        </mxCell>
        <mxCell id="a64oz1EbVZFV1ZMja35D-53" value="1:N" style="text;html=1;strokeColor=none;fillColor=none;align=center;verticalAlign=middle;whiteSpace=wrap;rounded=0;" vertex="1" parent="1">
          <mxGeometry x="1470" y="49" width="60" height="30" as="geometry" />
        </mxCell>
        <mxCell id="a64oz1EbVZFV1ZMja35D-54" value="1:N" style="text;html=1;strokeColor=none;fillColor=none;align=center;verticalAlign=middle;whiteSpace=wrap;rounded=0;" vertex="1" parent="1">
          <mxGeometry x="1470" y="150" width="60" height="30" as="geometry" />
        </mxCell>
        <mxCell id="a64oz1EbVZFV1ZMja35D-55" value="(1,N)" style="text;html=1;strokeColor=none;fillColor=none;align=center;verticalAlign=middle;whiteSpace=wrap;rounded=0;" vertex="1" parent="1">
          <mxGeometry x="1712" y="-10" width="60" height="30" as="geometry" />
        </mxCell>
        <mxCell id="a64oz1EbVZFV1ZMja35D-56" value="(1,1)" style="text;html=1;strokeColor=none;fillColor=none;align=center;verticalAlign=middle;whiteSpace=wrap;rounded=0;" vertex="1" parent="1">
          <mxGeometry x="1252" y="70" width="60" height="30" as="geometry" />
        </mxCell>
        <mxCell id="a64oz1EbVZFV1ZMja35D-57" value="(1,1)" style="text;html=1;strokeColor=none;fillColor=none;align=center;verticalAlign=middle;whiteSpace=wrap;rounded=0;" vertex="1" parent="1">
          <mxGeometry x="1252" y="180" width="60" height="30" as="geometry" />
        </mxCell>
        <mxCell id="a64oz1EbVZFV1ZMja35D-58" value="(1,N)" style="text;html=1;strokeColor=none;fillColor=none;align=center;verticalAlign=middle;whiteSpace=wrap;rounded=0;" vertex="1" parent="1">
          <mxGeometry x="1712" y="260" width="60" height="30" as="geometry" />
        </mxCell>
        <mxCell id="a64oz1EbVZFV1ZMja35D-59" value="" style="endArrow=none;html=1;rounded=0;entryX=0.5;entryY=1;entryDx=0;entryDy=0;exitX=0.5;exitY=0;exitDx=0;exitDy=0;" edge="1" parent="1" source="a64oz1EbVZFV1ZMja35D-60">
          <mxGeometry width="50" height="50" relative="1" as="geometry">
            <mxPoint x="1854.6000000000004" y="490" as="sourcePoint" />
            <mxPoint x="1854.7700000000004" y="375" as="targetPoint" />
          </mxGeometry>
        </mxCell>
        <mxCell id="a64oz1EbVZFV1ZMja35D-60" value="Genera" style="shape=rhombus;perimeter=rhombusPerimeter;whiteSpace=wrap;html=1;align=center;fillColor=#f8cecc;strokeColor=#b85450;" vertex="1" parent="1">
          <mxGeometry x="1795.13" y="495" width="120" height="60" as="geometry" />
        </mxCell>
        <mxCell id="a64oz1EbVZFV1ZMja35D-61" value="" style="endArrow=none;html=1;rounded=0;entryX=0.5;entryY=1;entryDx=0;entryDy=0;exitX=0.5;exitY=0;exitDx=0;exitDy=0;" edge="1" parent="1" source="a64oz1EbVZFV1ZMja35D-11">
          <mxGeometry width="50" height="50" relative="1" as="geometry">
            <mxPoint x="1740" y="620" as="sourcePoint" />
            <mxPoint x="1854.6000000000004" y="555" as="targetPoint" />
          </mxGeometry>
        </mxCell>
        <mxCell id="a64oz1EbVZFV1ZMja35D-62" value="N:M" style="text;html=1;strokeColor=none;fillColor=none;align=center;verticalAlign=middle;whiteSpace=wrap;rounded=0;" vertex="1" parent="1">
          <mxGeometry x="1915.13" y="510" width="60" height="30" as="geometry" />
        </mxCell>
        <mxCell id="a64oz1EbVZFV1ZMja35D-63" value="(1,N)" style="text;html=1;strokeColor=none;fillColor=none;align=center;verticalAlign=middle;whiteSpace=wrap;rounded=0;" vertex="1" parent="1">
          <mxGeometry x="1793.13" y="375" width="60" height="30" as="geometry" />
        </mxCell>
        <mxCell id="a64oz1EbVZFV1ZMja35D-64" value="(0,M)" style="text;html=1;strokeColor=none;fillColor=none;align=center;verticalAlign=middle;whiteSpace=wrap;rounded=0;" vertex="1" parent="1">
          <mxGeometry x="1852.63" y="645" width="60" height="30" as="geometry" />
        </mxCell>
        <mxCell id="a64oz1EbVZFV1ZMja35D-65" value="" style="endArrow=none;html=1;rounded=0;entryX=0.5;entryY=1;entryDx=0;entryDy=0;exitX=0.5;exitY=0;exitDx=0;exitDy=0;" edge="1" parent="1" source="a64oz1EbVZFV1ZMja35D-2" target="a64oz1EbVZFV1ZMja35D-35">
          <mxGeometry width="50" height="50" relative="1" as="geometry">
            <mxPoint x="1712.63" y="1015" as="sourcePoint" />
            <mxPoint x="1762.63" y="965" as="targetPoint" />
          </mxGeometry>
        </mxCell>
        <mxCell id="a64oz1EbVZFV1ZMja35D-66" value="" style="endArrow=none;html=1;rounded=0;entryX=0.5;entryY=0;entryDx=0;entryDy=0;exitX=0.5;exitY=0;exitDx=0;exitDy=0;" edge="1" parent="1" source="a64oz1EbVZFV1ZMja35D-13" target="a64oz1EbVZFV1ZMja35D-35">
          <mxGeometry width="50" height="50" relative="1" as="geometry">
            <mxPoint x="1712.63" y="1015" as="sourcePoint" />
            <mxPoint x="1762.63" y="965" as="targetPoint" />
          </mxGeometry>
        </mxCell>
        <mxCell id="a64oz1EbVZFV1ZMja35D-67" value="" style="endArrow=none;html=1;rounded=0;exitX=1;exitY=0.5;exitDx=0;exitDy=0;entryX=0;entryY=0.5;entryDx=0;entryDy=0;" edge="1" parent="1" source="a64oz1EbVZFV1ZMja35D-46" target="a64oz1EbVZFV1ZMja35D-12">
          <mxGeometry width="50" height="50" relative="1" as="geometry">
            <mxPoint x="1112" y="710" as="sourcePoint" />
            <mxPoint x="1430" y="791" as="targetPoint" />
          </mxGeometry>
        </mxCell>
        <mxCell id="a64oz1EbVZFV1ZMja35D-68" value="1:N" style="text;html=1;strokeColor=none;fillColor=none;align=center;verticalAlign=middle;whiteSpace=wrap;rounded=0;" vertex="1" parent="1">
          <mxGeometry x="802" y="731" width="60" height="30" as="geometry" />
        </mxCell>
        <mxCell id="a64oz1EbVZFV1ZMja35D-69" value="(1,1)" style="text;html=1;strokeColor=none;fillColor=none;align=center;verticalAlign=middle;whiteSpace=wrap;rounded=0;" vertex="1" parent="1">
          <mxGeometry x="372" y="410" width="60" height="30" as="geometry" />
        </mxCell>
        <mxCell id="a64oz1EbVZFV1ZMja35D-70" value="(1,N)" style="text;html=1;strokeColor=none;fillColor=none;align=center;verticalAlign=middle;whiteSpace=wrap;rounded=0;" vertex="1" parent="1">
          <mxGeometry x="1702.63" y="739.5" width="60" height="30" as="geometry" />
        </mxCell>
        <mxCell id="a64oz1EbVZFV1ZMja35D-71" value="" style="rounded=0;whiteSpace=wrap;html=1;fillColor=#ffe6cc;strokeColor=#d79b00;" vertex="1" parent="1">
          <mxGeometry x="-490" y="-115" width="550" height="835" as="geometry" />
        </mxCell>
        <mxCell id="a64oz1EbVZFV1ZMja35D-72" value="EMPLEADO(&lt;font style=&quot;text-decoration-line: underline;&quot; color=&quot;#ff1919&quot;&gt;DNI,&lt;/font&gt; nombre, dirección, titulación, anhoExp, horasPrevistas, tipo)" style="text;html=1;strokeColor=none;fillColor=none;align=center;verticalAlign=middle;whiteSpace=wrap;rounded=0;" vertex="1" parent="1">
          <mxGeometry x="-490" y="-95" width="540" height="30" as="geometry" />
        </mxCell>
        <mxCell id="a64oz1EbVZFV1ZMja35D-73" value="LENGUAJES(&lt;font color=&quot;#ff0000&quot;&gt;&lt;u&gt;lenguajeProg&lt;/u&gt;, &lt;i&gt;DNI&lt;/i&gt;&lt;/font&gt;)" style="text;html=1;strokeColor=none;fillColor=none;align=center;verticalAlign=middle;whiteSpace=wrap;rounded=0;" vertex="1" parent="1">
          <mxGeometry x="-485" width="540" height="30" as="geometry" />
        </mxCell>
        <mxCell id="a64oz1EbVZFV1ZMja35D-74" value="ESTÁ(&lt;u style=&quot;color: rgb(255, 25, 25); font-style: italic;&quot;&gt;DNI,&lt;/u&gt;&lt;span style=&quot;color: rgb(255, 25, 25); font-style: italic;&quot;&gt; &lt;/span&gt;&lt;u style=&quot;color: rgb(255, 25, 25); font-style: italic;&quot;&gt;codProyecto&lt;/u&gt;, horasPrevistas)" style="text;html=1;strokeColor=none;fillColor=none;align=center;verticalAlign=middle;whiteSpace=wrap;rounded=0;" vertex="1" parent="1">
          <mxGeometry x="-485" y="85" width="540" height="30" as="geometry" />
        </mxCell>
        <mxCell id="a64oz1EbVZFV1ZMja35D-75" value="LIDERA(&lt;i&gt;&lt;font style=&quot;&quot; color=&quot;#ff0000&quot;&gt;&lt;u&gt;DNI,&lt;/u&gt; &lt;u&gt;codProyecto,&lt;/u&gt;&lt;/font&gt;&lt;/i&gt; horasPrevistas)" style="text;html=1;strokeColor=none;fillColor=none;align=center;verticalAlign=middle;whiteSpace=wrap;rounded=0;" vertex="1" parent="1">
          <mxGeometry x="-485" y="170" width="540" height="30" as="geometry" />
        </mxCell>
        <mxCell id="a64oz1EbVZFV1ZMja35D-79" value="PROYECTO(&lt;font style=&quot;&quot; color=&quot;#ff0000&quot;&gt;&lt;u&gt;codProyecto&lt;/u&gt;&lt;/font&gt;, nombre, cliente, descripción, presupuesto, nºhoras, fechaInicio, fechaFin)&amp;nbsp;" style="text;html=1;strokeColor=none;fillColor=none;align=center;verticalAlign=middle;whiteSpace=wrap;rounded=0;" vertex="1" parent="1">
          <mxGeometry x="-485" y="245" width="540" height="30" as="geometry" />
        </mxCell>
        <mxCell id="a64oz1EbVZFV1ZMja35D-81" value="PROYECTOSRELACIONADOS(&lt;font color=&quot;#ff0000&quot;&gt;&lt;u&gt;proyectosRelacionados&lt;/u&gt;&lt;/font&gt;, &lt;i&gt;&lt;font color=&quot;#ff0000&quot;&gt;codProyecto&lt;/font&gt;&lt;/i&gt;)" style="text;html=1;strokeColor=none;fillColor=none;align=center;verticalAlign=middle;whiteSpace=wrap;rounded=0;" vertex="1" parent="1">
          <mxGeometry x="-485" y="330" width="540" height="30" as="geometry" />
        </mxCell>
        <mxCell id="a64oz1EbVZFV1ZMja35D-83" value="GASTO(&lt;font color=&quot;#ff0000&quot;&gt;&lt;u&gt;idGasto&lt;/u&gt;&lt;/font&gt;, descripcion, fecha, importe, tipoGasto, &lt;i&gt;&lt;font color=&quot;#ff0000&quot;&gt;codProyecto&lt;/font&gt;&lt;/i&gt;)&amp;nbsp;&amp;nbsp;" style="text;html=1;strokeColor=none;fillColor=none;align=center;verticalAlign=middle;whiteSpace=wrap;rounded=0;" vertex="1" parent="1">
          <mxGeometry x="-485" y="405" width="540" height="30" as="geometry" />
        </mxCell>
        <mxCell id="a64oz1EbVZFV1ZMja35D-85" value="FASE(&lt;font color=&quot;#ff0000&quot;&gt;&lt;u&gt;codFase&lt;/u&gt;&lt;/font&gt;, nombre, descripcion, estado, &lt;i&gt;&lt;font color=&quot;#ff0000&quot;&gt;codProyecto&lt;/font&gt;&lt;/i&gt;)" style="text;html=1;strokeColor=none;fillColor=none;align=center;verticalAlign=middle;whiteSpace=wrap;rounded=0;" vertex="1" parent="1">
          <mxGeometry x="-485" y="485" width="540" height="30" as="geometry" />
        </mxCell>
        <mxCell id="a64oz1EbVZFV1ZMja35D-87" value="GENERA(&lt;i style=&quot;&quot;&gt;&lt;font style=&quot;&quot; color=&quot;#ff0000&quot;&gt;&lt;u&gt;codFase&lt;/u&gt;&lt;/font&gt;&lt;/i&gt;, &lt;i&gt;&lt;font color=&quot;#ff0000&quot;&gt;&lt;u&gt;codProducto&lt;/u&gt;&lt;/font&gt;&lt;/i&gt;)" style="text;html=1;strokeColor=none;fillColor=none;align=center;verticalAlign=middle;whiteSpace=wrap;rounded=0;" vertex="1" parent="1">
          <mxGeometry x="-485" y="570" width="540" height="30" as="geometry" />
        </mxCell>
        <mxCell id="a64oz1EbVZFV1ZMja35D-91" value="HorasPrevistas" style="ellipse;whiteSpace=wrap;html=1;align=center;fillColor=#fff2cc;strokeColor=#d6b656;" vertex="1" parent="1">
          <mxGeometry x="880" y="-95" width="100" height="40" as="geometry" />
        </mxCell>
        <mxCell id="a64oz1EbVZFV1ZMja35D-92" value="" style="endArrow=none;html=1;rounded=0;exitX=1;exitY=0;exitDx=0;exitDy=0;entryX=0;entryY=0.5;entryDx=0;entryDy=0;" edge="1" parent="1" target="a64oz1EbVZFV1ZMja35D-91">
          <mxGeometry width="50" height="50" relative="1" as="geometry">
            <mxPoint x="850" y="-30" as="sourcePoint" />
            <mxPoint x="980" y="5" as="targetPoint" />
          </mxGeometry>
        </mxCell>
        <mxCell id="a64oz1EbVZFV1ZMja35D-93" value="PRODUCTO(&lt;font color=&quot;#ff0000&quot;&gt;&lt;u&gt;codProducto&lt;/u&gt;&lt;/font&gt;, nombre, descripcion, estado)" style="text;html=1;strokeColor=none;fillColor=none;align=center;verticalAlign=middle;whiteSpace=wrap;rounded=0;" vertex="1" parent="1">
          <mxGeometry x="-480" y="660" width="540" height="30" as="geometry" />
        </mxCell>
      </root>
    </mxGraphModel>
  </diagram>
</mxfile>
